#!OML:ASF E:/inclinewalkrobotboard/Project1/Captureday1/Session1/subject1.ASF
:FULLY-SPECIFIED
:DEGREES
251
root 0 0 0 -1.1426753205966225 -2.857730320479665 -0.8513251212655433
lowerback 10.958603174728562 0.5668243968249255 0.47125449921995166
upperback -1.1473099526050228 0.884019662289222 0.8988989458544846
thorax -7.332892896706635 0.4067562333525866 0.4343328218240411
lowerneck -13.340124291533632 -1.380325551088024 0.25615119492131083
upperneck 19.049948521828156 -1.3577627224128186 -2.4014568179536124
head 8.20062969992272 -0.7909461923896597 -1.0245876177566169
rclavicle -4.691127661392784E-16 -2.947903842183084E-16
rhumerus -10.60233270454076 -5.981852225261246 -66.55879131723778
rradius 44.05315966299699
rwrist 12.564008466382921
rhand -23.994381669274485 -7.435877973593755
rfingers 7.125020000000129
rthumb 2.7088093669405753 -37.55124051040732
lclavicle -9.804316783337354E-16 -8.016344044879095E-16
lhumerus -11.698586395121822 -4.270670170505738 68.19843968877791
lradius 44.23775872659147
lwrist -5.476532881251335
lhand -33.556883529822564 -12.05318416566298
lfingers 7.125020000000127
lthumb -6.839349719898763 17.010488024700365
rfemur 13.998727017904798 8.403985873102233 37.82220526590105
rtibia 33.08249943822695
rfoot -14.460737140621463 -1.3675775671404198
rtoes 7.540376152710494
lfemur -33.1068463304014 0.042676450950546174 -8.504828605434518
ltibia 48.8554419550191
lfoot 3.4928769305887375 -2.97429783490632
ltoes -1.1209062663018097
252
root 0 0 0 -1.1354875403193312 -2.860260381651701 -0.843189918355068
lowerback 10.961663380182237 0.5680296545758399 0.46958806340732606
upperback -1.1573892259917993 0.8847474138847204 0.8942343763021233
thorax -7.345392230290676 0.40722231500635786 0.4304500166039862
lowerneck -13.319027669999949 -1.3710589057330818 0.2688034755949365
upperneck 19.04957116734422 -1.3430968719279899 -2.4185668191509224
head 8.196677997460975 -0.784810334213135 -1.0311307644384662
rclavicle -4.690315776458071E-16 -3.008957471270107E-16
rhumerus -10.475102138467772 -5.895400159474508 -66.48156581701474
rradius 44.17122966569882
rwrist 12.622814989326582
rhand -24.036702437834947 -7.638800227455567
rfingers 7.125020000000128
rthumb 2.666344895117292 -37.751835712342945
lclavicle -9.851204716383994E-16 -7.976316025741547E-16
lhumerus -11.738466782364462 -4.259880690270537 68.22649096351273
lradius 44.205309662585485
lwrist -5.456573706697775
lhand -33.543595792489576 -11.984528073546143
lfingers 7.125020000000127
lthumb -6.826150662398907 17.080513305354252
rfemur 14.217927662858603 8.153391291769946 37.778151490946314
rtibia 34.90381380629178
rfoot -13.906902079656506 -1.1230290707096078
rtoes 7.8939033750755305
lfemur -35.01577933137934 -1.0641108446333156 -8.526338912101085
ltibia 40.571841669170375
lfoot 0.41182947576523254 0.562224442228457
ltoes 0.2824992012110794
253
root 0 0 0 -1.1356231704180764 -2.860453578057839 -0.8434488375292131
lowerback 10.961536765574603 0.5681034856538162 0.46942573449701963
upperback -1.1571333941837252 0.8844185295011564 0.894177223716445
thorax -7.3444871401891705 0.40727355689681793 0.43037620930197695
lowerneck -13.319919411010785 -1.3713828138793906 0.26829568955207866
upperneck 19.049294888523182 -1.3434948544990837 -2.417713938790044
head 8.196658815185689 -0.7848923159393676 -1.030855541037611
rclavicle -4.654246480413874E-16 -2.9601579022749683E-16
rhumerus -10.563117567045671 -5.951492478103476 -66.53697944150132
rradius 44.08702407523568
rwrist 12.580898590168452
rhand -24.00709614082866 -7.491727919686616
rfingers 7.125020000000129
rthumb 2.6958282760011505 -37.60728918732226
lclavicle -9.884097007087263E-16 -7.940438213382169E-16
lhumerus -11.94294121749003 -4.2099465464832555 68.37204354169214
lradius 44.03957945000005
lwrist -5.344853468220806
lhand -33.473119881995686 -11.60843290355317
lfingers 7.125020000000128
lthumb -6.759010254368305 17.45605116681249
rfemur 13.96612773574505 7.759404166145254 37.49697748156413
rtibia 37.42947644198297
rfoot -12.976980387409075 -0.8802039732369931
rtoes 8.344165577905446
lfemur -32.63819303765817 -2.825338638779574 -10.491538775292272
ltibia 27.797036067236824
lfoot -4.534461540596533 4.451753618037633
ltoes 1.4102821297937602
254
root 0 0 0 -1.1411576066385998 -2.8588040072411105 -0.8495723044918992
lowerback 10.95915433355647 0.5673097190497781 0.4704731244826611
upperback -1.1494432398141978 0.8836645493010188 0.8976009009270938
thorax -7.334371445219599 0.40698436561050366 0.4332229325527727
lowerneck -13.336504313318079 -1.3784763624796454 0.2583458237869845
upperneck 19.049523889329517 -1.3546851579978256 -2.4041514567174413
head 8.199583660912552 -0.7894681798403993 -1.0257177612247474
rclavicle -4.626129418600117E-16 -2.863419205762088E-16
rhumerus -10.74929377940374 -6.075339198592188 -66.65160082008036
rradius 43.91161924021583
rwrist 12.493188504921829
rhand -23.944659606023425 -7.18937778872707
rfingers 7.125020000000129
rthumb 2.7577625259806107 -37.30879715049656
lclavicle -9.860430158895507E-16 -7.928595901479067E-16
lhumerus -12.12767900816354 -4.165902253035454 68.50355817904156
lradius 43.89110205206408
lwrist -5.24294960536851
lhand -33.409887622638 -11.268736349691912
lfingers 7.125020000000129
lthumb -6.698727541592717 17.798044501957392
rfemur 13.433967233999073 7.460376933191672 37.16089000910064
rtibia 39.163238869278324
rfoot -12.22483922592027 -0.7746917892134864
rtoes 8.636159592914757
lfemur -28.91486548463149 -3.768191262482788 -12.509241917967852
ltibia 21.065501919463596
lfoot -7.3474156672053725 5.842013931056199
ltoes 1.5896644686639778
